<svg width="524" height="1078" viewBox="0 0 524 1078" fill="none" xmlns="http://www.w3.org/2000/svg">
<path fill-rule="evenodd" clip-rule="evenodd" d="M523.017 430.371C523.028 504.899 502.01 631.301 473.25 686.9C429.455 771.564 361.151 810.239 275.597 824.063C115.068 850.002 0.0166951 722.593 0.0166955 629.565C0.0166958 542.674 23.9183 489.093 91.8492 430.371C159.78 371.649 207.25 329.711 238.469 259.506C269.224 190.341 309.342 159.253 351.237 159.253C396.55 159.253 440.914 180.781 473.25 231.277C506.239 282.792 523.005 355.862 523.017 430.371Z" fill="#E2E8F0"/>
<path fill-rule="evenodd" clip-rule="evenodd" d="M159.983 669.623C139.902 712.33 116.078 792.02 115.093 833.806C113.591 897.435 136.4 943.164 174.295 980.601C245.398 1050.85 335.685 1017.52 360.743 964.209C384.149 914.412 386.954 875.459 369.727 818.371C352.499 761.282 340.704 720.872 344.428 669.867C348.097 619.619 336.956 587.963 316.576 573.509C294.533 557.877 267.153 554.909 237.821 572.692C207.897 590.834 180.059 626.926 159.983 669.623Z" fill="#FACC15"/>
<path d="M166.323 248.544L161.736 250.956L162.612 245.847L158.899 242.23L164.029 241.484L166.323 236.836L168.618 241.484L173.747 242.23L170.035 245.847L170.912 250.956L166.323 248.544Z" fill="#94A3B8"/>
<path d="M188.619 11.1994L185.014 13.0943L185.702 9.08039L182.785 6.23786L186.815 5.65219L188.619 1.99976L190.421 5.65219L194.451 6.23786L191.535 9.08039L192.224 13.0943L188.619 11.1994Z" fill="#94A3B8"/>
<g clip-path="url(#clip0_20_2074)">
<path d="M296.019 409.984C294.638 409.984 293.519 408.865 293.519 407.484C293.519 406.103 294.638 404.984 296.019 404.984C297.399 404.984 298.519 406.103 298.519 407.484C298.519 408.865 297.399 409.984 296.019 409.984Z" fill="#94A3B8"/>
</g>
<path d="M223.654 362.739C221.308 362.739 219.407 360.838 219.407 358.492C219.407 356.147 221.308 354.246 223.654 354.246C225.999 354.246 227.901 356.147 227.901 358.492C227.901 360.838 225.999 362.739 223.654 362.739Z" fill="#94A3B8"/>
<g clip-path="url(#clip1_20_2074)">
<path d="M191 195.984C189.619 195.984 188.5 194.865 188.5 193.484C188.5 192.103 189.619 190.984 191 190.984C192.381 190.984 193.5 192.103 193.5 193.484C193.5 194.865 192.381 195.984 191 195.984Z" fill="#94A3B8"/>
</g>
<path d="M238.007 262.352C234.782 262.352 232.168 259.738 232.168 256.513C232.168 253.288 234.782 250.674 238.007 250.674C241.232 250.674 243.846 253.288 243.846 256.513C243.846 259.738 241.232 262.352 238.007 262.352Z" fill="#94A3B8"/>
<g clip-path="url(#clip2_20_2074)">
<path d="M200.996 131.554C199.824 131.554 198.873 130.603 198.873 129.43C198.873 128.258 199.824 127.307 200.996 127.307C202.169 127.307 203.12 128.258 203.12 129.43C203.12 130.603 202.169 131.554 200.996 131.554Z" fill="#94A3B8"/>
</g>
<g clip-path="url(#clip3_20_2074)">
<path d="M243.478 172.667C241.425 172.667 239.762 171.003 239.762 168.951C239.762 166.898 241.425 165.235 243.478 165.235C245.53 165.235 247.194 166.898 247.194 168.951C247.194 171.003 245.53 172.667 243.478 172.667Z" fill="#94A3B8"/>
</g>
<g clip-path="url(#clip4_20_2074)">
<path d="M105.171 241.913C103.412 241.913 101.986 240.487 101.986 238.728C101.986 236.969 103.412 235.543 105.171 235.543C106.93 235.543 108.356 236.969 108.356 238.728C108.356 240.487 106.93 241.913 105.171 241.913Z" fill="#94A3B8"/>
</g>
<path d="M260.67 111.545V107.564C260.67 107.353 260.586 107.15 260.437 107.001C260.287 106.851 260.085 106.768 259.874 106.768C259.663 106.768 259.46 106.851 259.311 107.001C259.161 107.15 259.077 107.353 259.077 107.564V111.545H255.096C254.885 111.545 254.682 111.629 254.533 111.778C254.384 111.928 254.3 112.13 254.3 112.341C254.3 112.553 254.384 112.755 254.533 112.904C254.682 113.054 254.885 113.138 255.096 113.138H259.077V117.119C259.077 117.33 259.161 117.533 259.311 117.682C259.46 117.831 259.663 117.915 259.874 117.915C260.085 117.915 260.287 117.831 260.437 117.682C260.586 117.533 260.67 117.33 260.67 117.119V113.138H264.651C264.862 113.138 265.065 113.054 265.214 112.904C265.364 112.755 265.448 112.553 265.448 112.341C265.448 112.13 265.364 111.928 265.214 111.778C265.065 111.629 264.862 111.545 264.651 111.545H260.67Z" fill="#94A3B8"/>
<path d="M224.248 57.5433V55.4199C224.248 55.3073 224.204 55.1993 224.124 55.1196C224.044 55.04 223.936 54.9952 223.824 54.9952C223.711 54.9952 223.603 55.04 223.523 55.1196C223.444 55.1993 223.399 55.3073 223.399 55.4199V57.5433H221.276C221.163 57.5433 221.055 57.588 220.975 57.6676C220.896 57.7473 220.851 57.8553 220.851 57.9679C220.851 58.0806 220.896 58.1886 220.975 58.2682C221.055 58.3479 221.163 58.3926 221.276 58.3926H223.399V60.516C223.399 60.6286 223.444 60.7366 223.523 60.8162C223.603 60.8959 223.711 60.9406 223.824 60.9406C223.936 60.9406 224.044 60.8959 224.124 60.8162C224.204 60.7366 224.248 60.6286 224.248 60.516V58.3926H226.372C226.484 58.3926 226.592 58.3479 226.672 58.2682C226.752 58.1886 226.796 58.0806 226.796 57.9679C226.796 57.8553 226.752 57.7473 226.672 57.6676C226.592 57.588 226.484 57.5433 226.372 57.5433H224.248Z" fill="#94A3B8"/>
<g clip-path="url(#clip5_20_2074)">
<path d="M302.841 92.4953C301.082 92.4953 299.656 91.0694 299.656 89.3103C299.656 87.5512 301.082 86.1252 302.841 86.1252C304.6 86.1252 306.026 87.5512 306.026 89.3103C306.026 91.0694 304.6 92.4953 302.841 92.4953Z" fill="#94A3B8"/>
</g>
<path d="M245.709 499.309V497.185C245.709 497.073 245.665 496.965 245.585 496.885C245.505 496.805 245.397 496.761 245.285 496.761C245.172 496.761 245.064 496.805 244.984 496.885C244.905 496.965 244.86 497.073 244.86 497.185V499.309H242.737C242.624 499.309 242.516 499.354 242.436 499.433C242.357 499.513 242.312 499.621 242.312 499.733C242.312 499.846 242.357 499.954 242.436 500.034C242.516 500.113 242.624 500.158 242.737 500.158H244.86V502.281C244.86 502.394 244.905 502.502 244.984 502.582C245.064 502.661 245.172 502.706 245.285 502.706C245.397 502.706 245.505 502.661 245.585 502.582C245.665 502.502 245.709 502.394 245.709 502.281V500.158H247.833C247.945 500.158 248.053 500.113 248.133 500.034C248.213 499.954 248.257 499.846 248.257 499.733C248.257 499.621 248.213 499.513 248.133 499.433C248.053 499.354 247.945 499.309 247.833 499.309H245.709Z" fill="#94A3B8"/>
<path d="M332.553 187.626L333.491 186.688C333.516 186.663 333.536 186.634 333.55 186.601C333.564 186.569 333.571 186.534 333.572 186.499C333.572 186.464 333.565 186.429 333.552 186.396C333.539 186.363 333.519 186.334 333.494 186.309C333.469 186.284 333.439 186.264 333.407 186.251C333.374 186.238 333.339 186.231 333.304 186.231C333.269 186.232 333.234 186.239 333.202 186.253C333.169 186.267 333.14 186.287 333.115 186.312L332.177 187.25L331.239 186.312C331.214 186.287 331.185 186.267 331.153 186.253C331.12 186.239 331.085 186.232 331.05 186.231C331.015 186.231 330.98 186.238 330.947 186.251C330.915 186.264 330.885 186.284 330.86 186.309C330.835 186.334 330.815 186.363 330.802 186.396C330.789 186.429 330.782 186.464 330.782 186.499C330.783 186.534 330.79 186.569 330.804 186.601C330.818 186.634 330.838 186.663 330.863 186.688L331.802 187.626L330.863 188.564C330.838 188.589 330.818 188.618 330.804 188.65C330.79 188.683 330.783 188.718 330.782 188.753C330.782 188.788 330.789 188.823 330.802 188.856C330.815 188.888 330.835 188.918 330.86 188.943C330.885 188.968 330.915 188.988 330.947 189.001C330.98 189.014 331.015 189.021 331.05 189.021C331.085 189.02 331.12 189.013 331.153 188.999C331.185 188.985 331.214 188.965 331.239 188.94L332.177 188.001L333.115 188.94C333.14 188.965 333.169 188.985 333.202 188.999C333.234 189.013 333.269 189.02 333.304 189.021C333.339 189.021 333.374 189.014 333.407 189.001C333.439 188.988 333.469 188.968 333.494 188.943C333.519 188.918 333.539 188.888 333.552 188.856C333.565 188.823 333.572 188.788 333.572 188.753C333.571 188.718 333.564 188.683 333.55 188.65C333.536 188.618 333.516 188.589 333.491 188.564L332.553 187.626V187.626Z" fill="#94A3B8"/>
<path d="M275.601 42.9432L278.416 40.1277C278.492 40.0542 278.553 39.9663 278.595 39.8692C278.636 39.7721 278.658 39.6676 278.659 39.5618C278.66 39.4561 278.64 39.3513 278.6 39.2534C278.56 39.1556 278.501 39.0666 278.426 38.9919C278.351 38.9171 278.262 38.858 278.165 38.818C278.067 38.7779 277.962 38.7578 277.856 38.7587C277.75 38.7596 277.646 38.7816 277.549 38.8233C277.452 38.865 277.364 38.9257 277.29 39.0018L274.475 41.8165L271.66 39.0018C271.587 38.9257 271.499 38.865 271.402 38.8233C271.304 38.7816 271.2 38.7596 271.094 38.7587C270.988 38.7578 270.884 38.7779 270.786 38.818C270.688 38.858 270.599 38.9171 270.524 38.9919C270.449 39.0666 270.39 39.1556 270.35 39.2534C270.31 39.3513 270.29 39.4561 270.291 39.5618C270.292 39.6676 270.314 39.7721 270.356 39.8692C270.397 39.9663 270.458 40.0542 270.534 40.1277L273.349 42.9424L270.534 45.758C270.458 45.8314 270.397 45.9193 270.356 46.0165C270.314 46.1136 270.292 46.2181 270.291 46.3238C270.29 46.4295 270.31 46.5344 270.35 46.6323C270.39 46.7301 270.449 46.819 270.524 46.8938C270.599 46.9685 270.688 47.0277 270.786 47.0677C270.884 47.1077 270.988 47.1279 271.094 47.127C271.2 47.126 271.304 47.1041 271.402 47.0623C271.499 47.0206 271.587 46.96 271.66 46.8839L274.475 44.0691L277.29 46.8839C277.364 46.96 277.452 47.0206 277.549 47.0623C277.646 47.1041 277.75 47.126 277.856 47.127C277.962 47.1279 278.067 47.1077 278.165 47.0677C278.262 47.0277 278.351 46.9685 278.426 46.8938C278.501 46.819 278.56 46.7301 278.6 46.6323C278.64 46.5344 278.66 46.4295 278.659 46.3238C278.658 46.2181 278.636 46.1136 278.595 46.0165C278.553 45.9193 278.492 45.8314 278.416 45.758L275.601 42.9424V42.9432Z" fill="#94A3B8"/>
<path d="M289.52 318.588V315.403C289.52 315.234 289.453 315.072 289.334 314.953C289.214 314.833 289.052 314.766 288.883 314.766C288.715 314.766 288.553 314.833 288.433 314.953C288.314 315.072 288.246 315.234 288.246 315.403V318.588H285.061C284.892 318.588 284.73 318.655 284.611 318.775C284.492 318.894 284.424 319.056 284.424 319.225C284.424 319.394 284.492 319.556 284.611 319.676C284.73 319.795 284.892 319.862 285.061 319.862H288.246V323.047C288.246 323.216 288.314 323.378 288.433 323.498C288.553 323.617 288.715 323.684 288.883 323.684C289.052 323.684 289.214 323.617 289.334 323.498C289.453 323.378 289.52 323.216 289.52 323.047V319.862H292.706C292.874 319.862 293.036 319.795 293.156 319.676C293.275 319.556 293.343 319.394 293.343 319.225C293.343 319.056 293.275 318.894 293.156 318.775C293.036 318.655 292.874 318.588 292.706 318.588H289.52Z" fill="#94A3B8"/>
<path d="M7.13 266.519V263.865C7.13 263.724 7.07408 263.589 6.97453 263.49C6.87497 263.39 6.73995 263.334 6.59917 263.334C6.45838 263.334 6.32336 263.39 6.22381 263.49C6.12426 263.589 6.06833 263.724 6.06833 263.865V266.519H3.41414C3.27335 266.519 3.13833 266.575 3.03878 266.675C2.93923 266.774 2.8833 266.909 2.8833 267.05C2.8833 267.191 2.93923 267.326 3.03878 267.425C3.13833 267.525 3.27335 267.581 3.41414 267.581H6.06833V270.235C6.06833 270.376 6.12426 270.511 6.22381 270.61C6.32336 270.71 6.45838 270.766 6.59917 270.766C6.73995 270.766 6.87497 270.71 6.97453 270.61C7.07408 270.511 7.13 270.376 7.13 270.235V267.581H9.78419C9.92498 267.581 10.06 267.525 10.1596 267.425C10.2591 267.326 10.315 267.191 10.315 267.05C10.315 266.909 10.2591 266.774 10.1596 266.675C10.06 266.575 9.92498 266.519 9.78419 266.519H7.13Z" fill="#94A3B8"/>
<path d="M291.673 214.521L293.174 213.019C293.214 212.98 293.247 212.933 293.269 212.882C293.291 212.83 293.303 212.774 293.304 212.718C293.304 212.661 293.293 212.605 293.272 212.553C293.251 212.501 293.219 212.454 293.179 212.414C293.139 212.374 293.092 212.342 293.04 212.321C292.988 212.3 292.932 212.289 292.875 212.289C292.819 212.29 292.763 212.302 292.711 212.324C292.659 212.346 292.613 212.378 292.573 212.419L291.072 213.92L289.571 212.419C289.531 212.378 289.485 212.346 289.433 212.324C289.381 212.302 289.325 212.29 289.269 212.289C289.212 212.289 289.157 212.3 289.104 212.321C289.052 212.342 289.005 212.374 288.965 212.414C288.925 212.454 288.893 212.501 288.872 212.553C288.851 212.605 288.84 212.661 288.84 212.718C288.841 212.774 288.853 212.83 288.875 212.882C288.897 212.933 288.93 212.98 288.97 213.019L290.471 214.521L288.97 216.022C288.93 216.061 288.897 216.108 288.875 216.16C288.853 216.212 288.841 216.268 288.84 216.324C288.84 216.38 288.851 216.436 288.872 216.489C288.893 216.541 288.925 216.588 288.965 216.628C289.005 216.668 289.052 216.699 289.104 216.721C289.157 216.742 289.212 216.753 289.269 216.752C289.325 216.752 289.381 216.74 289.433 216.718C289.485 216.696 289.531 216.663 289.571 216.623L291.072 215.122L292.573 216.623C292.613 216.663 292.659 216.696 292.711 216.718C292.763 216.74 292.819 216.752 292.875 216.752C292.932 216.753 292.988 216.742 293.04 216.721C293.092 216.699 293.139 216.668 293.179 216.628C293.219 216.588 293.251 216.541 293.272 216.489C293.293 216.436 293.304 216.38 293.304 216.324C293.303 216.268 293.291 216.212 293.269 216.16C293.247 216.108 293.214 216.061 293.174 216.022L291.673 214.521V214.521Z" fill="#94A3B8"/>
<defs>
<clipPath id="clip0_20_2074">
<rect width="6" height="6" fill="white" transform="translate(293.019 404.468)"/>
</clipPath>
<clipPath id="clip1_20_2074">
<rect width="6" height="6" fill="white" transform="translate(188 190.468)"/>
</clipPath>
<clipPath id="clip2_20_2074">
<rect width="5.09605" height="5.09605" fill="white" transform="translate(198.448 126.869)"/>
</clipPath>
<clipPath id="clip3_20_2074">
<rect width="8.91808" height="8.91808" fill="white" transform="translate(239.019 164.468)"/>
</clipPath>
<clipPath id="clip4_20_2074">
<rect width="7.64407" height="7.64407" fill="white" transform="translate(101.349 234.885)"/>
</clipPath>
<clipPath id="clip5_20_2074">
<rect width="7.64407" height="7.64407" fill="white" transform="translate(299.019 85.4675)"/>
</clipPath>
</defs>
</svg>
