<svg width="1484" height="869" viewBox="0 0 1484 869" fill="none" xmlns="http://www.w3.org/2000/svg">
<path fill-rule="evenodd" clip-rule="evenodd" d="M1483.02 341.717C1483.03 402.39 1462.01 505.293 1433.25 550.556C1389.46 619.481 1321.15 650.967 1235.6 662.221C1075.07 683.337 960.017 579.614 960.017 503.88C960.017 433.142 983.919 389.523 1051.85 341.717C1119.78 293.911 1167.25 259.77 1198.47 202.616C1229.23 146.309 1269.34 121 1311.24 121C1356.55 121 1400.91 138.526 1433.25 179.634C1466.24 221.573 1483.01 281.059 1483.02 341.717Z" fill="#E2E8F0"/>
<path fill-rule="evenodd" clip-rule="evenodd" d="M1119.98 536.491C1099.9 571.259 1076.08 636.135 1075.09 670.152C1073.59 721.953 1096.4 759.18 1134.3 789.658C1205.4 846.845 1295.69 819.715 1320.74 776.313C1344.15 735.773 1346.96 704.062 1329.73 657.587C1312.5 611.111 1300.7 578.213 1304.43 536.69C1308.1 495.783 1296.96 470.012 1276.58 458.245C1254.53 445.519 1227.15 443.103 1197.82 457.58C1167.9 472.35 1140.06 501.732 1119.98 536.491Z" fill="#58CC05"/>
<path d="M1126.32 248.077L1121.74 250.488L1122.61 245.38L1118.9 241.762L1124.03 241.017L1126.32 236.368L1128.62 241.017L1133.75 241.762L1130.04 245.38L1130.91 250.488L1126.32 248.077Z" fill="#94A3B8"/>
<path d="M1148.62 10.7319L1145.02 12.6267L1145.7 8.61285L1142.79 5.77032L1146.82 5.18464L1148.62 1.53221L1150.42 5.18464L1154.45 5.77032L1151.54 8.61285L1152.23 12.6267L1148.62 10.7319Z" fill="#94A3B8"/>
<g clip-path="url(#clip0_25_10642)">
<path d="M1256.02 409.516C1254.64 409.516 1253.52 408.397 1253.52 407.016C1253.52 405.635 1254.64 404.516 1256.02 404.516C1257.4 404.516 1258.52 405.635 1258.52 407.016C1258.52 408.397 1257.4 409.516 1256.02 409.516Z" fill="#94A3B8"/>
</g>
<path d="M1183.66 362.271C1181.31 362.271 1179.41 360.37 1179.41 358.025C1179.41 355.679 1181.31 353.778 1183.66 353.778C1186 353.778 1187.9 355.679 1187.9 358.025C1187.9 360.37 1186 362.271 1183.66 362.271Z" fill="#94A3B8"/>
<g clip-path="url(#clip1_25_10642)">
<path d="M1151 195.516C1149.62 195.516 1148.5 194.397 1148.5 193.016C1148.5 191.636 1149.62 190.516 1151 190.516C1152.38 190.516 1153.5 191.636 1153.5 193.016C1153.5 194.397 1152.38 195.516 1151 195.516Z" fill="#94A3B8"/>
</g>
<path d="M1198.01 261.884C1194.78 261.884 1192.17 259.27 1192.17 256.045C1192.17 252.82 1194.78 250.206 1198.01 250.206C1201.23 250.206 1203.85 252.82 1203.85 256.045C1203.85 259.27 1201.23 261.884 1198.01 261.884Z" fill="#94A3B8"/>
<g clip-path="url(#clip2_25_10642)">
<path d="M1161 131.086C1159.83 131.086 1158.87 130.136 1158.87 128.963C1158.87 127.79 1159.83 126.84 1161 126.84C1162.17 126.84 1163.12 127.79 1163.12 128.963C1163.12 130.136 1162.17 131.086 1161 131.086Z" fill="#94A3B8"/>
</g>
<g clip-path="url(#clip3_25_10642)">
<path d="M1203.48 172.199C1201.43 172.199 1199.76 170.535 1199.76 168.483C1199.76 166.431 1201.43 164.767 1203.48 164.767C1205.53 164.767 1207.19 166.431 1207.19 168.483C1207.19 170.535 1205.53 172.199 1203.48 172.199Z" fill="#94A3B8"/>
</g>
<g clip-path="url(#clip4_25_10642)">
<path d="M1065.17 241.446C1063.41 241.446 1061.99 240.02 1061.99 238.261C1061.99 236.502 1063.41 235.076 1065.17 235.076C1066.93 235.076 1068.36 236.502 1068.36 238.261C1068.36 240.02 1066.93 241.446 1065.17 241.446Z" fill="#94A3B8"/>
</g>
<path d="M1220.67 111.078V107.096C1220.67 106.885 1220.59 106.683 1220.44 106.533C1220.29 106.384 1220.09 106.3 1219.88 106.3C1219.66 106.3 1219.46 106.384 1219.31 106.533C1219.16 106.683 1219.08 106.885 1219.08 107.096V111.078H1215.1C1214.89 111.078 1214.68 111.161 1214.53 111.311C1214.39 111.46 1214.3 111.663 1214.3 111.874C1214.3 112.085 1214.39 112.287 1214.53 112.437C1214.68 112.586 1214.89 112.67 1215.1 112.67H1219.08V116.651C1219.08 116.862 1219.16 117.065 1219.31 117.214C1219.46 117.364 1219.66 117.448 1219.88 117.448C1220.09 117.448 1220.29 117.364 1220.44 117.214C1220.59 117.065 1220.67 116.862 1220.67 116.651V112.67H1224.65C1224.86 112.67 1225.07 112.586 1225.22 112.437C1225.36 112.287 1225.45 112.085 1225.45 111.874C1225.45 111.663 1225.36 111.46 1225.22 111.311C1225.07 111.161 1224.86 111.078 1224.65 111.078H1220.67Z" fill="#94A3B8"/>
<path d="M1184.25 57.0757V54.9524C1184.25 54.8397 1184.2 54.7317 1184.13 54.6521C1184.05 54.5724 1183.94 54.5277 1183.82 54.5277C1183.71 54.5277 1183.6 54.5724 1183.52 54.6521C1183.45 54.7317 1183.4 54.8397 1183.4 54.9524V57.0757H1181.28C1181.16 57.0757 1181.06 57.1205 1180.98 57.2001C1180.9 57.2797 1180.85 57.3878 1180.85 57.5004C1180.85 57.613 1180.9 57.721 1180.98 57.8007C1181.06 57.8803 1181.16 57.9251 1181.28 57.9251H1183.4V60.0484C1183.4 60.161 1183.45 60.269 1183.52 60.3487C1183.6 60.4283 1183.71 60.4731 1183.82 60.4731C1183.94 60.4731 1184.05 60.4283 1184.13 60.3487C1184.2 60.269 1184.25 60.161 1184.25 60.0484V57.9251H1186.37C1186.49 57.9251 1186.59 57.8803 1186.67 57.8007C1186.75 57.721 1186.8 57.613 1186.8 57.5004C1186.8 57.3878 1186.75 57.2797 1186.67 57.2001C1186.59 57.1205 1186.49 57.0757 1186.37 57.0757H1184.25Z" fill="#94A3B8"/>
<g clip-path="url(#clip5_25_10642)">
<path d="M1262.84 92.0278C1261.08 92.0278 1259.66 90.6018 1259.66 88.8427C1259.66 87.0836 1261.08 85.6577 1262.84 85.6577C1264.6 85.6577 1266.03 87.0836 1266.03 88.8427C1266.03 90.6018 1264.6 92.0278 1262.84 92.0278Z" fill="#94A3B8"/>
</g>
<path d="M1205.71 498.841V496.718C1205.71 496.605 1205.67 496.497 1205.59 496.418C1205.51 496.338 1205.4 496.293 1205.29 496.293C1205.17 496.293 1205.07 496.338 1204.99 496.418C1204.91 496.497 1204.86 496.605 1204.86 496.718V498.841H1202.74C1202.63 498.841 1202.52 498.886 1202.44 498.966C1202.36 499.045 1202.31 499.153 1202.31 499.266C1202.31 499.379 1202.36 499.487 1202.44 499.566C1202.52 499.646 1202.63 499.691 1202.74 499.691H1204.86V501.814C1204.86 501.927 1204.91 502.035 1204.99 502.114C1205.07 502.194 1205.17 502.239 1205.29 502.239C1205.4 502.239 1205.51 502.194 1205.59 502.114C1205.67 502.035 1205.71 501.927 1205.71 501.814V499.691H1207.83C1207.95 499.691 1208.05 499.646 1208.13 499.566C1208.21 499.487 1208.26 499.379 1208.26 499.266C1208.26 499.153 1208.21 499.045 1208.13 498.966C1208.05 498.886 1207.95 498.841 1207.83 498.841H1205.71Z" fill="#94A3B8"/>
<path d="M1292.55 187.158L1293.49 186.22C1293.52 186.195 1293.54 186.166 1293.55 186.134C1293.57 186.101 1293.57 186.067 1293.57 186.031C1293.57 185.996 1293.57 185.961 1293.55 185.929C1293.54 185.896 1293.52 185.866 1293.5 185.841C1293.47 185.816 1293.44 185.797 1293.41 185.783C1293.38 185.77 1293.34 185.763 1293.31 185.764C1293.27 185.764 1293.24 185.771 1293.2 185.785C1293.17 185.799 1293.14 185.819 1293.12 185.845L1292.18 186.783L1291.24 185.845C1291.22 185.819 1291.19 185.799 1291.15 185.785C1291.12 185.771 1291.09 185.764 1291.05 185.764C1291.02 185.763 1290.98 185.77 1290.95 185.783C1290.92 185.797 1290.89 185.816 1290.86 185.841C1290.84 185.866 1290.82 185.896 1290.8 185.929C1290.79 185.961 1290.78 185.996 1290.78 186.031C1290.78 186.067 1290.79 186.101 1290.81 186.134C1290.82 186.166 1290.84 186.195 1290.86 186.22L1291.8 187.158L1290.86 188.097C1290.84 188.121 1290.82 188.151 1290.81 188.183C1290.79 188.215 1290.78 188.25 1290.78 188.285C1290.78 188.321 1290.79 188.356 1290.8 188.388C1290.82 188.421 1290.84 188.45 1290.86 188.475C1290.89 188.5 1290.92 188.52 1290.95 188.533C1290.98 188.547 1291.02 188.553 1291.05 188.553C1291.09 188.553 1291.12 188.545 1291.15 188.532C1291.19 188.518 1291.22 188.497 1291.24 188.472L1292.18 187.534L1293.12 188.472C1293.14 188.497 1293.17 188.518 1293.2 188.532C1293.24 188.545 1293.27 188.553 1293.31 188.553C1293.34 188.553 1293.38 188.547 1293.41 188.533C1293.44 188.52 1293.47 188.5 1293.5 188.475C1293.52 188.45 1293.54 188.421 1293.55 188.388C1293.57 188.356 1293.57 188.321 1293.57 188.285C1293.57 188.25 1293.57 188.215 1293.55 188.183C1293.54 188.151 1293.52 188.121 1293.49 188.097L1292.55 187.158V187.158Z" fill="#94A3B8"/>
<path d="M1235.6 42.4756L1238.42 39.6601C1238.49 39.5866 1238.55 39.4988 1238.6 39.4016C1238.64 39.3045 1238.66 39.2 1238.66 39.0943C1238.66 38.9885 1238.64 38.8837 1238.6 38.7858C1238.56 38.688 1238.5 38.5991 1238.43 38.5243C1238.35 38.4495 1238.26 38.3904 1238.17 38.3504C1238.07 38.3103 1237.96 38.2902 1237.86 38.2911C1237.75 38.292 1237.65 38.314 1237.55 38.3557C1237.45 38.3975 1237.37 38.4581 1237.29 38.5342L1234.48 41.3489L1231.66 38.5342C1231.59 38.4581 1231.5 38.3975 1231.4 38.3557C1231.31 38.314 1231.2 38.292 1231.1 38.2911C1230.99 38.2902 1230.88 38.3103 1230.79 38.3504C1230.69 38.3904 1230.6 38.4495 1230.53 38.5243C1230.45 38.5991 1230.39 38.688 1230.35 38.7858C1230.31 38.8837 1230.29 38.9885 1230.29 39.0943C1230.29 39.2 1230.32 39.3045 1230.36 39.4016C1230.4 39.4988 1230.46 39.5866 1230.54 39.6601L1233.35 42.4748L1230.54 45.2904C1230.46 45.3639 1230.4 45.4517 1230.36 45.5489C1230.32 45.646 1230.29 45.7505 1230.29 45.8562C1230.29 45.962 1230.31 46.0668 1230.35 46.1647C1230.39 46.2625 1230.45 46.3514 1230.53 46.4262C1230.6 46.501 1230.69 46.5601 1230.79 46.6001C1230.88 46.6401 1230.99 46.6603 1231.1 46.6594C1231.2 46.6585 1231.31 46.6365 1231.4 46.5948C1231.5 46.553 1231.59 46.4924 1231.66 46.4163L1234.48 43.6016L1237.29 46.4163C1237.37 46.4924 1237.45 46.553 1237.55 46.5948C1237.65 46.6365 1237.75 46.6585 1237.86 46.6594C1237.96 46.6603 1238.07 46.6401 1238.17 46.6001C1238.26 46.5601 1238.35 46.501 1238.43 46.4262C1238.5 46.3514 1238.56 46.2625 1238.6 46.1647C1238.64 46.0668 1238.66 45.962 1238.66 45.8562C1238.66 45.7505 1238.64 45.646 1238.6 45.5489C1238.55 45.4517 1238.49 45.3639 1238.42 45.2904L1235.6 42.4748V42.4756Z" fill="#94A3B8"/>
<path d="M1249.52 318.121V314.936C1249.52 314.767 1249.45 314.605 1249.34 314.485C1249.22 314.366 1249.05 314.299 1248.88 314.299C1248.72 314.299 1248.55 314.366 1248.43 314.485C1248.31 314.605 1248.25 314.767 1248.25 314.936V318.121H1245.06C1244.89 318.121 1244.73 318.188 1244.61 318.307C1244.49 318.427 1244.43 318.589 1244.43 318.758C1244.43 318.927 1244.49 319.089 1244.61 319.208C1244.73 319.328 1244.89 319.395 1245.06 319.395H1248.25V322.58C1248.25 322.749 1248.31 322.911 1248.43 323.03C1248.55 323.15 1248.72 323.217 1248.88 323.217C1249.05 323.217 1249.22 323.15 1249.34 323.03C1249.45 322.911 1249.52 322.749 1249.52 322.58V319.395H1252.71C1252.88 319.395 1253.04 319.328 1253.16 319.208C1253.28 319.089 1253.34 318.927 1253.34 318.758C1253.34 318.589 1253.28 318.427 1253.16 318.307C1253.04 318.188 1252.88 318.121 1252.71 318.121H1249.52Z" fill="#94A3B8"/>
<path d="M967.131 266.052V263.397C967.131 263.257 967.075 263.122 966.976 263.022C966.876 262.923 966.741 262.867 966.601 262.867C966.46 262.867 966.325 262.923 966.225 263.022C966.126 263.122 966.07 263.257 966.07 263.397V266.052H963.415C963.275 266.052 963.14 266.108 963.04 266.207C962.941 266.307 962.885 266.442 962.885 266.583C962.885 266.723 962.941 266.858 963.04 266.958C963.14 267.057 963.275 267.113 963.415 267.113H966.07V269.768C966.07 269.908 966.126 270.043 966.225 270.143C966.325 270.242 966.46 270.298 966.601 270.298C966.741 270.298 966.876 270.242 966.976 270.143C967.075 270.043 967.131 269.908 967.131 269.768V267.113H969.786C969.926 267.113 970.061 267.057 970.161 266.958C970.26 266.858 970.316 266.723 970.316 266.583C970.316 266.442 970.26 266.307 970.161 266.207C970.061 266.108 969.926 266.052 969.786 266.052H967.131Z" fill="#94A3B8"/>
<path d="M1251.67 214.054L1253.18 212.552C1253.22 212.513 1253.25 212.466 1253.27 212.414C1253.29 212.362 1253.3 212.307 1253.3 212.25C1253.31 212.194 1253.29 212.138 1253.27 212.086C1253.25 212.033 1253.22 211.986 1253.18 211.946C1253.14 211.906 1253.09 211.875 1253.04 211.853C1252.99 211.832 1252.93 211.821 1252.88 211.822C1252.82 211.822 1252.76 211.834 1252.71 211.856C1252.66 211.879 1252.61 211.911 1252.57 211.951L1251.07 213.453L1249.57 211.951C1249.53 211.911 1249.49 211.879 1249.43 211.856C1249.38 211.834 1249.33 211.822 1249.27 211.822C1249.21 211.821 1249.16 211.832 1249.11 211.853C1249.05 211.875 1249.01 211.906 1248.97 211.946C1248.93 211.986 1248.89 212.033 1248.87 212.086C1248.85 212.138 1248.84 212.194 1248.84 212.25C1248.84 212.307 1248.85 212.362 1248.88 212.414C1248.9 212.466 1248.93 212.513 1248.97 212.552L1250.47 214.053L1248.97 215.555C1248.93 215.594 1248.9 215.641 1248.88 215.693C1248.85 215.744 1248.84 215.8 1248.84 215.857C1248.84 215.913 1248.85 215.969 1248.87 216.021C1248.89 216.073 1248.93 216.121 1248.97 216.161C1249.01 216.2 1249.05 216.232 1249.11 216.253C1249.16 216.275 1249.21 216.285 1249.27 216.285C1249.33 216.284 1249.38 216.273 1249.43 216.25C1249.49 216.228 1249.53 216.196 1249.57 216.155L1251.07 214.654L1252.57 216.155C1252.61 216.196 1252.66 216.228 1252.71 216.25C1252.76 216.273 1252.82 216.284 1252.88 216.285C1252.93 216.285 1252.99 216.275 1253.04 216.253C1253.09 216.232 1253.14 216.2 1253.18 216.161C1253.22 216.121 1253.25 216.073 1253.27 216.021C1253.29 215.969 1253.31 215.913 1253.3 215.857C1253.3 215.8 1253.29 215.744 1253.27 215.693C1253.25 215.641 1253.22 215.594 1253.18 215.555L1251.67 214.053V214.054Z" fill="#94A3B8"/>
<path d="M154.722 166.503L152.988 162.823L156.964 163.685L159.929 160.898L160.337 164.945L163.904 166.904L160.18 168.544L159.42 172.541L156.71 169.506L152.674 170.019L154.722 166.503Z" fill="#58CC05"/>
<g clip-path="url(#clip6_25_10642)">
<path d="M390.036 171.276L388.673 168.384L391.797 169.061L394.126 166.871L394.448 170.052L397.25 171.591L394.324 172.879L393.727 176.02L391.598 173.635L388.426 174.038L390.036 171.276Z" fill="#58CC05"/>
</g>
<g clip-path="url(#clip7_25_10642)">
<path d="M210.927 192.515C210.997 190.905 212.359 189.658 213.968 189.728C215.578 189.798 216.825 191.16 216.755 192.769C216.685 194.379 215.323 195.626 213.714 195.556C212.104 195.486 210.857 194.124 210.927 192.515Z" fill="#58CC05"/>
</g>
<g clip-path="url(#clip8_25_10642)">
<path d="M98.1795 186.106C98.2599 184.267 99.8159 182.841 101.655 182.922C103.494 183.002 104.92 184.558 104.84 186.397C104.76 188.237 103.203 189.662 101.364 189.582C99.525 189.502 98.0992 187.946 98.1795 186.106Z" fill="#58CC05"/>
</g>
<path d="M75.5255 250.127C75.6259 247.828 77.5709 246.046 79.87 246.146C82.169 246.247 83.9513 248.192 83.8509 250.491C83.7505 252.79 81.8054 254.572 79.5064 254.472C77.2073 254.371 75.4251 252.426 75.5255 250.127Z" fill="#58CC05"/>
<g clip-path="url(#clip9_25_10642)">
<path d="M170.874 221.308C170.974 219.009 172.92 217.227 175.219 217.327C177.518 217.428 179.3 219.373 179.199 221.672C179.099 223.971 177.154 225.753 174.855 225.653C172.556 225.552 170.774 223.607 170.874 221.308Z" fill="#58CC05"/>
</g>
<path d="M519.786 186.952C519.896 184.423 522.036 182.463 524.565 182.573C527.094 182.684 529.054 184.823 528.944 187.352C528.833 189.881 526.694 191.842 524.165 191.731C521.636 191.621 519.675 189.481 519.786 186.952Z" fill="#58CC05"/>
<g clip-path="url(#clip10_25_10642)">
<path d="M294.414 177.609C294.455 176.69 295.233 175.977 296.152 176.017C297.072 176.057 297.785 176.835 297.745 177.755C297.704 178.674 296.926 179.387 296.007 179.347C295.087 179.307 294.374 178.529 294.414 177.609Z" fill="#58CC05"/>
</g>
<g clip-path="url(#clip11_25_10642)">
<path d="M252.477 295.416C252.547 293.807 253.908 292.559 255.518 292.629C257.127 292.7 258.375 294.061 258.304 295.67C258.234 297.28 256.872 298.527 255.263 298.457C253.654 298.387 252.406 297.025 252.477 295.416Z" fill="#58CC05"/>
</g>
<g clip-path="url(#clip12_25_10642)">
<path d="M485.413 300.106C485.473 298.727 486.64 297.657 488.019 297.717C489.399 297.778 490.468 298.945 490.408 300.324C490.348 301.704 489.181 302.773 487.801 302.713C486.422 302.652 485.353 301.485 485.413 300.106Z" fill="#58CC05"/>
</g>
<path d="M423.343 217.648L426.465 217.785C426.63 217.792 426.792 217.733 426.914 217.621C427.036 217.509 427.109 217.353 427.116 217.187C427.124 217.022 427.065 216.86 426.953 216.738C426.841 216.616 426.685 216.543 426.519 216.536L423.397 216.399L423.534 213.277C423.541 213.112 423.482 212.95 423.37 212.828C423.258 212.706 423.102 212.633 422.936 212.626C422.771 212.618 422.609 212.677 422.487 212.789C422.365 212.901 422.292 213.057 422.285 213.223L422.148 216.345L419.026 216.208C418.861 216.201 418.699 216.26 418.577 216.372C418.455 216.484 418.382 216.64 418.375 216.806C418.368 216.971 418.426 217.133 418.538 217.255C418.65 217.377 418.806 217.45 418.972 217.457L422.094 217.594L421.958 220.716C421.95 220.881 422.009 221.043 422.121 221.165C422.233 221.287 422.389 221.36 422.555 221.367C422.72 221.375 422.882 221.316 423.004 221.204C423.126 221.092 423.199 220.936 423.206 220.77L423.343 217.648Z" fill="#58CC05"/>
<path d="M352.474 197.628L354.139 197.701C354.227 197.705 354.313 197.674 354.379 197.614C354.444 197.554 354.483 197.471 354.486 197.383C354.49 197.294 354.459 197.208 354.399 197.143C354.339 197.078 354.256 197.039 354.168 197.035L352.503 196.962L352.576 195.297C352.579 195.209 352.548 195.123 352.488 195.058C352.429 194.992 352.345 194.954 352.257 194.95C352.169 194.946 352.083 194.977 352.017 195.037C351.952 195.097 351.913 195.18 351.91 195.268L351.837 196.933L350.172 196.861C350.083 196.857 349.997 196.888 349.932 196.948C349.867 197.008 349.828 197.091 349.824 197.179C349.82 197.267 349.852 197.354 349.911 197.419C349.971 197.484 350.054 197.523 350.143 197.527L351.808 197.599L351.735 199.264C351.731 199.353 351.763 199.439 351.822 199.504C351.882 199.569 351.965 199.608 352.054 199.612C352.142 199.616 352.228 199.584 352.293 199.525C352.358 199.465 352.397 199.382 352.401 199.293L352.474 197.628Z" fill="#58CC05"/>
<g clip-path="url(#clip13_25_10642)">
<path d="M314.325 252.549C314.385 251.17 315.552 250.101 316.931 250.161C318.311 250.221 319.38 251.388 319.32 252.768C319.26 254.147 318.093 255.216 316.713 255.156C315.334 255.096 314.264 253.929 314.325 252.549Z" fill="#58CC05"/>
</g>
<path d="M45.1577 200.455L47.6553 200.564C47.7878 200.57 47.9172 200.523 48.015 200.433C48.1127 200.343 48.1709 200.219 48.1767 200.086C48.1825 199.954 48.1354 199.824 48.0458 199.727C47.9562 199.629 47.8315 199.571 47.699 199.565L45.2014 199.456L45.3104 196.958C45.3162 196.826 45.2692 196.696 45.1796 196.598C45.09 196.501 44.9652 196.443 44.8327 196.437C44.7003 196.431 44.5709 196.478 44.4731 196.568C44.3754 196.657 44.3172 196.782 44.3114 196.914L44.2023 199.412L41.7047 199.303C41.5722 199.297 41.4429 199.344 41.3451 199.434C41.2473 199.523 41.1891 199.648 41.1834 199.781C41.1776 199.913 41.2246 200.043 41.3142 200.14C41.4038 200.238 41.5286 200.296 41.6611 200.302L44.1587 200.411L44.0496 202.909C44.0438 203.041 44.0909 203.171 44.1805 203.268C44.2701 203.366 44.3948 203.424 44.5273 203.43C44.6598 203.436 44.7891 203.389 44.8869 203.299C44.9847 203.21 45.0429 203.085 45.0486 202.952L45.1577 200.455Z" fill="#58CC05"/>
<path d="M164.505 291.823L165.209 292.591C165.228 292.612 165.25 292.629 165.275 292.641C165.3 292.653 165.327 292.66 165.354 292.661C165.382 292.663 165.41 292.659 165.436 292.649C165.462 292.64 165.486 292.625 165.506 292.607C165.526 292.588 165.543 292.565 165.554 292.54C165.566 292.515 165.572 292.488 165.573 292.46C165.574 292.433 165.57 292.405 165.56 292.379C165.55 292.353 165.535 292.33 165.516 292.31L164.813 291.542L165.581 290.838C165.601 290.82 165.618 290.797 165.63 290.772C165.642 290.748 165.649 290.72 165.651 290.693C165.652 290.665 165.648 290.638 165.639 290.612C165.629 290.586 165.615 290.562 165.596 290.541C165.577 290.521 165.555 290.504 165.53 290.493C165.505 290.481 165.477 290.475 165.45 290.474C165.422 290.473 165.395 290.477 165.369 290.487C165.343 290.497 165.319 290.512 165.299 290.531L164.531 291.234L163.827 290.467C163.809 290.446 163.787 290.429 163.762 290.417C163.737 290.405 163.71 290.398 163.682 290.397C163.655 290.395 163.627 290.399 163.601 290.409C163.575 290.418 163.551 290.432 163.531 290.451C163.51 290.47 163.494 290.492 163.482 290.517C163.471 290.542 163.464 290.57 163.463 290.597C163.462 290.625 163.467 290.653 163.477 290.678C163.486 290.704 163.501 290.728 163.52 290.748L164.224 291.516L163.456 292.22C163.435 292.238 163.418 292.26 163.406 292.285C163.394 292.31 163.387 292.337 163.386 292.365C163.385 292.392 163.389 292.42 163.398 292.446C163.407 292.472 163.422 292.496 163.44 292.516C163.459 292.537 163.482 292.553 163.507 292.565C163.532 292.576 163.559 292.583 163.587 292.584C163.614 292.585 163.642 292.58 163.668 292.571C163.694 292.561 163.717 292.546 163.737 292.527L164.506 291.823L164.505 291.823Z" fill="#58CC05"/>
<path d="M578.453 211.357L580.564 213.66C580.619 213.722 580.686 213.773 580.761 213.809C580.835 213.845 580.917 213.866 580.999 213.87C581.082 213.875 581.165 213.862 581.243 213.834C581.321 213.806 581.393 213.763 581.454 213.707C581.516 213.651 581.565 213.583 581.6 213.508C581.634 213.432 581.654 213.351 581.657 213.268C581.66 213.185 581.646 213.102 581.617 213.025C581.587 212.947 581.543 212.876 581.485 212.816L579.375 210.512L581.678 208.401C581.74 208.346 581.791 208.279 581.827 208.204C581.863 208.129 581.884 208.048 581.888 207.965C581.893 207.883 581.88 207.8 581.852 207.722C581.824 207.643 581.781 207.572 581.725 207.51C581.669 207.449 581.601 207.4 581.526 207.365C581.45 207.33 581.369 207.311 581.286 207.308C581.203 207.305 581.12 207.319 581.043 207.348C580.965 207.378 580.894 207.422 580.834 207.479L578.53 209.59L576.419 207.286C576.364 207.224 576.297 207.174 576.222 207.138C576.147 207.102 576.066 207.081 575.983 207.077C575.901 207.072 575.818 207.084 575.74 207.112C575.661 207.14 575.59 207.184 575.528 207.24C575.467 207.296 575.418 207.364 575.383 207.439C575.348 207.514 575.329 207.596 575.326 207.679C575.323 207.762 575.337 207.844 575.366 207.922C575.396 208 575.44 208.071 575.497 208.131L577.608 210.435L575.304 212.546C575.242 212.601 575.192 212.668 575.156 212.743C575.12 212.817 575.099 212.898 575.095 212.981C575.09 213.064 575.102 213.147 575.13 213.225C575.158 213.303 575.202 213.375 575.258 213.436C575.314 213.497 575.382 213.547 575.457 213.582C575.532 213.616 575.614 213.636 575.697 213.639C575.78 213.642 575.862 213.628 575.94 213.599C576.018 213.569 576.089 213.525 576.149 213.467L578.453 211.357L578.453 211.357Z" fill="#58CC05"/>
<path d="M6.69932 278.887L9.19694 278.997C9.32942 279.002 9.45878 278.955 9.55655 278.866C9.65432 278.776 9.71249 278.651 9.71828 278.519C9.72407 278.386 9.67699 278.257 9.5874 278.159C9.49781 278.061 9.37306 278.003 9.24057 277.998L6.74296 277.888L6.85204 275.391C6.85783 275.258 6.81075 275.129 6.72116 275.031C6.63157 274.933 6.50682 274.875 6.37434 274.869C6.24185 274.864 6.1125 274.911 6.01473 275C5.91696 275.09 5.85878 275.215 5.85299 275.347L5.74391 277.845L3.24629 277.736C3.11381 277.73 2.98445 277.777 2.88668 277.867C2.78891 277.956 2.73073 278.081 2.72495 278.213C2.71916 278.346 2.76624 278.475 2.85583 278.573C2.94541 278.671 3.07017 278.729 3.20265 278.735L5.70027 278.844L5.59119 281.341C5.5854 281.474 5.63248 281.603 5.72207 281.701C5.81165 281.799 5.93641 281.857 6.06889 281.863C6.20137 281.869 6.33073 281.822 6.4285 281.732C6.52627 281.642 6.58445 281.518 6.59023 281.385L6.69932 278.887Z" fill="#58CC05"/>
<path d="M523.089 234.225L525.171 234.316C525.281 234.32 525.389 234.281 525.47 234.207C525.552 234.132 525.6 234.028 525.605 233.918C525.61 233.807 525.571 233.699 525.496 233.618C525.421 233.536 525.318 233.488 525.207 233.483L523.126 233.392L523.217 231.311C523.222 231.2 523.182 231.093 523.108 231.011C523.033 230.93 522.929 230.881 522.819 230.876C522.708 230.872 522.6 230.911 522.519 230.985C522.437 231.06 522.389 231.164 522.384 231.274L522.293 233.356L520.212 233.265C520.101 233.26 519.994 233.299 519.912 233.374C519.831 233.449 519.782 233.553 519.777 233.663C519.773 233.773 519.812 233.881 519.887 233.963C519.961 234.044 520.065 234.093 520.176 234.097L522.257 234.188L522.166 236.27C522.161 236.38 522.2 236.488 522.275 236.569C522.35 236.651 522.454 236.699 522.564 236.704C522.674 236.709 522.782 236.67 522.864 236.595C522.945 236.52 522.994 236.416 522.999 236.306L523.089 234.225Z" fill="#58CC05"/>
<path d="M192.011 269.667L193.137 270.895C193.166 270.928 193.202 270.955 193.242 270.975C193.282 270.994 193.325 271.005 193.369 271.007C193.413 271.01 193.458 271.003 193.499 270.988C193.541 270.973 193.579 270.95 193.612 270.92C193.644 270.89 193.671 270.854 193.689 270.814C193.708 270.774 193.718 270.73 193.72 270.686C193.721 270.642 193.714 270.598 193.698 270.556C193.683 270.515 193.659 270.477 193.628 270.445L192.503 269.216L193.731 268.09C193.764 268.061 193.791 268.025 193.811 267.985C193.83 267.945 193.841 267.902 193.843 267.858C193.846 267.814 193.839 267.77 193.824 267.728C193.809 267.686 193.786 267.648 193.756 267.615C193.726 267.583 193.69 267.556 193.65 267.538C193.61 267.519 193.566 267.509 193.522 267.507C193.478 267.506 193.434 267.513 193.392 267.529C193.351 267.544 193.313 267.568 193.281 267.599L192.052 268.725L190.926 267.496C190.897 267.463 190.861 267.436 190.821 267.417C190.782 267.397 190.738 267.386 190.694 267.384C190.65 267.382 190.606 267.388 190.564 267.403C190.522 267.418 190.484 267.441 190.451 267.471C190.419 267.501 190.392 267.537 190.374 267.577C190.355 267.617 190.345 267.661 190.343 267.705C190.342 267.749 190.349 267.793 190.365 267.835C190.381 267.876 190.404 267.914 190.435 267.946L191.561 269.175L190.332 270.301C190.299 270.33 190.272 270.366 190.253 270.406C190.233 270.446 190.222 270.489 190.22 270.533C190.218 270.577 190.224 270.622 190.239 270.663C190.254 270.705 190.277 270.743 190.307 270.776C190.337 270.808 190.373 270.835 190.413 270.853C190.453 270.872 190.497 270.882 190.541 270.884C190.585 270.885 190.629 270.878 190.671 270.862C190.712 270.847 190.75 270.823 190.782 270.792L192.011 269.667L192.011 269.667Z" fill="#58CC05"/>
<defs>
<clipPath id="clip0_25_10642">
<rect width="6" height="6" fill="white" transform="translate(1253.02 404)"/>
</clipPath>
<clipPath id="clip1_25_10642">
<rect width="6" height="6" fill="white" transform="translate(1148 190)"/>
</clipPath>
<clipPath id="clip2_25_10642">
<rect width="5.09605" height="5.09605" fill="white" transform="translate(1158.45 126.401)"/>
</clipPath>
<clipPath id="clip3_25_10642">
<rect width="8.91808" height="8.91808" fill="white" transform="translate(1199.02 164)"/>
</clipPath>
<clipPath id="clip4_25_10642">
<rect width="7.64407" height="7.64407" fill="white" transform="translate(1061.35 234.418)"/>
</clipPath>
<clipPath id="clip5_25_10642">
<rect width="7.64407" height="7.64407" fill="white" transform="translate(1259.02 85)"/>
</clipPath>
<clipPath id="clip6_25_10642">
<rect width="11" height="11" fill="white" transform="translate(398.691 166.148) rotate(92.5009)"/>
</clipPath>
<clipPath id="clip7_25_10642">
<rect width="7" height="7" fill="white" transform="translate(217.509 189.299) rotate(92.5009)"/>
</clipPath>
<clipPath id="clip8_25_10642">
<rect width="8" height="8" fill="white" transform="translate(105.702 182.431) rotate(92.5009)"/>
</clipPath>
<clipPath id="clip9_25_10642">
<rect width="10" height="10" fill="white" transform="translate(180.277 216.714) rotate(92.5009)"/>
</clipPath>
<clipPath id="clip10_25_10642">
<rect width="4" height="4" fill="white" transform="translate(298.176 175.772) rotate(92.5009)"/>
</clipPath>
<clipPath id="clip11_25_10642">
<rect width="7" height="7" fill="white" transform="translate(259.059 292.2) rotate(92.5009)"/>
</clipPath>
<clipPath id="clip12_25_10642">
<rect width="6" height="6" fill="white" transform="translate(491.055 297.35) rotate(92.5009)"/>
</clipPath>
<clipPath id="clip13_25_10642">
<rect width="6" height="6" fill="white" transform="translate(319.967 249.793) rotate(92.5009)"/>
</clipPath>
</defs>
</svg>
