<svg width="564" height="362" viewBox="0 0 564 362" fill="none" xmlns="http://www.w3.org/2000/svg">
<path d="M502.963 210.314H128.935C95.2928 210.314 68.0204 183.042 68.0204 149.4V142.934C68.0204 109.291 95.2928 82.0189 128.935 82.0189H502.963C536.606 82.0189 563.878 109.291 563.878 142.934V149.4C563.878 183.042 536.606 210.314 502.963 210.314Z" fill="#FAFAFA"/>
<path d="M220.514 173.663C218.825 173.663 217.459 172.297 217.459 170.608V123.837C217.459 122.149 218.825 120.782 220.514 120.782C222.202 120.782 223.568 122.149 223.568 123.837V170.608C223.568 172.297 222.202 173.663 220.514 173.663Z" fill="#58CC05"/>
<path d="M205.303 166.349C203.615 166.349 202.248 164.982 202.248 163.294V131.152C202.248 129.464 203.615 128.098 205.303 128.098C206.991 128.098 208.357 129.464 208.357 131.152V163.294C208.357 164.982 206.991 166.349 205.303 166.349Z" fill="#58CC05"/>
<path d="M235.725 166.349C234.036 166.349 232.67 164.982 232.67 163.294V131.152C232.67 129.464 234.036 128.098 235.725 128.098C237.413 128.098 238.779 129.464 238.779 131.152V163.294C238.779 164.982 237.413 166.349 235.725 166.349Z" fill="#58CC05"/>
<path d="M250.935 159.782C249.247 159.782 247.881 158.416 247.881 156.727V137.719C247.881 136.031 249.247 134.664 250.935 134.664C252.624 134.664 253.99 136.031 253.99 137.719V156.727C253.99 158.416 252.624 159.782 250.935 159.782Z" fill="#58CC05"/>
<path d="M494.309 173.663C492.623 173.663 491.255 172.297 491.255 170.608V123.837C491.255 122.149 492.623 120.782 494.309 120.782C495.996 120.782 497.364 122.149 497.364 123.837V170.608C497.364 172.297 495.996 173.663 494.309 173.663Z" fill="#58CC05"/>
<path d="M479.097 166.349C477.411 166.349 476.043 164.982 476.043 163.294V131.152C476.043 129.464 477.411 128.098 479.097 128.098C480.784 128.098 482.152 129.464 482.152 131.152V163.294C482.152 164.982 480.784 166.349 479.097 166.349Z" fill="#58CC05"/>
<path d="M509.519 166.349C507.833 166.349 506.465 164.982 506.465 163.294V131.152C506.465 129.464 507.833 128.098 509.519 128.098C511.206 128.098 512.574 129.464 512.574 131.152V163.294C512.574 164.982 511.206 166.349 509.519 166.349Z" fill="#58CC05"/>
<path d="M524.731 159.782C523.045 159.782 521.677 158.416 521.677 156.727V137.719C521.677 136.031 523.045 134.664 524.731 134.664C526.417 134.664 527.786 136.031 527.786 137.719V156.727C527.786 158.416 526.417 159.782 524.731 159.782Z" fill="#58CC05"/>
<path d="M266.146 165.743C264.458 165.743 263.092 164.376 263.092 162.688V131.756C263.092 130.068 264.458 128.702 266.146 128.702C267.835 128.702 269.201 130.068 269.201 131.756V162.688C269.201 164.376 267.835 165.743 266.146 165.743Z" fill="#58CC05"/>
<path d="M281.357 172.502C279.669 172.502 278.302 171.135 278.302 169.447V124.999C278.302 123.311 279.669 121.945 281.357 121.945C283.045 121.945 284.412 123.311 284.412 124.999V169.447C284.412 171.135 283.045 172.502 281.357 172.502Z" fill="#58CC05"/>
<path d="M296.568 180.605C294.88 180.605 293.513 179.239 293.513 177.55V116.896C293.513 115.208 294.88 113.841 296.568 113.841C298.256 113.841 299.623 115.208 299.623 116.896V177.55C299.623 179.239 298.256 180.605 296.568 180.605Z" fill="#58CC05"/>
<path d="M311.779 172.848C310.091 172.848 308.724 171.482 308.724 169.793V124.653C308.724 122.965 310.091 121.598 311.779 121.598C313.467 121.598 314.834 122.965 314.834 124.653V169.793C314.834 171.482 313.467 172.848 311.779 172.848Z" fill="#58CC05"/>
<path d="M326.99 165.571C325.302 165.571 323.935 164.205 323.935 162.516V131.929C323.935 130.242 325.302 128.874 326.99 128.874C328.678 128.874 330.044 130.242 330.044 131.929V162.516C330.044 164.205 328.678 165.571 326.99 165.571Z" fill="#58CC05"/>
<path d="M342.2 161.683C340.512 161.683 339.146 160.317 339.146 158.628V135.818C339.146 134.13 340.512 132.763 342.2 132.763C343.889 132.763 345.255 134.13 345.255 135.818V158.628C345.255 160.317 343.889 161.683 342.2 161.683Z" fill="#58CC05"/>
<path d="M357.412 173.347C355.723 173.347 354.357 171.98 354.357 170.292V124.154C354.357 122.466 355.723 121.099 357.412 121.099C359.1 121.099 360.466 122.466 360.466 124.154V170.292C360.466 171.98 359.1 173.347 357.412 173.347Z" fill="#58CC05"/>
<path d="M418.254 173.347C416.568 173.347 415.199 171.98 415.199 170.292V124.154C415.199 122.466 416.568 121.099 418.254 121.099C419.94 121.099 421.309 122.466 421.309 124.154V170.292C421.309 171.98 419.94 173.347 418.254 173.347Z" fill="#58CC05"/>
<path d="M372.622 180.605C370.934 180.605 369.568 179.239 369.568 177.55V116.896C369.568 115.208 370.934 113.841 372.622 113.841C374.311 113.841 375.677 115.208 375.677 116.896V177.55C375.677 179.239 374.311 180.605 372.622 180.605Z" fill="#58CC05"/>
<path d="M387.832 192.874C386.146 192.874 384.778 191.507 384.778 189.819V104.625C384.778 102.939 386.146 101.57 387.832 101.57C389.519 101.57 390.887 102.939 390.887 104.625V189.819C390.887 191.507 389.519 192.874 387.832 192.874Z" fill="#58CC05"/>
<path d="M403.044 180.605C401.358 180.605 399.99 179.239 399.99 177.55V116.896C399.99 115.208 401.358 113.841 403.044 113.841C404.73 113.841 406.099 115.208 406.099 116.896V177.55C406.099 179.239 404.73 180.605 403.044 180.605Z" fill="#58CC05"/>
<path d="M433.466 161.683C431.78 161.683 430.411 160.317 430.411 158.628V135.818C430.411 134.13 431.78 132.763 433.466 132.763C435.152 132.763 436.521 134.13 436.521 135.818V158.628C436.521 160.317 435.152 161.683 433.466 161.683Z" fill="#58CC05"/>
<path d="M463.888 161.683C462.202 161.683 460.833 160.317 460.833 158.628V135.818C460.833 134.13 462.202 132.763 463.888 132.763C465.574 132.763 466.942 134.13 466.942 135.818V158.628C466.942 160.317 465.574 161.683 463.888 161.683Z" fill="#58CC05"/>
<path d="M448.676 157.876C446.989 157.876 445.621 156.509 445.621 154.821V139.625C445.621 137.939 446.989 136.57 448.676 136.57C450.362 136.57 451.73 137.939 451.73 139.625V154.821C451.73 156.509 450.362 157.876 448.676 157.876Z" fill="#58CC05"/>
<path d="M190.092 161.683C188.404 161.683 187.037 160.317 187.037 158.628V135.818C187.037 134.13 188.404 132.763 190.092 132.763C191.78 132.763 193.147 134.13 193.147 135.818V158.628C193.147 160.317 191.78 161.683 190.092 161.683Z" fill="#58CC05"/>
<path d="M172.771 145.91C172.771 169.743 153.451 189.063 129.618 189.063C105.787 189.063 86.4672 169.743 86.4672 145.91C86.4672 122.077 105.787 102.757 129.618 102.757C153.451 102.757 172.771 122.077 172.771 145.91Z" fill="#58CC05"/>
<path d="M118.202 147.223V134.65C118.202 131.378 121.746 129.331 124.581 130.968L135.47 137.255L146.359 143.539C149.193 145.177 149.193 149.27 146.359 150.907L135.47 157.192L124.581 163.478C121.746 165.116 118.202 163.069 118.202 159.796V147.223Z" fill="white"/>
</svg>
