<svg width="23" height="30" viewBox="0 0 23 30" fill="none" xmlns="http://www.w3.org/2000/svg">
<path d="M1.44049 17.4018C0.615538 16.8472 0.371097 15.8447 0.792458 14.9788C-0.223627 13.9021 -0.396985 8.86722 1.07284 8.1822C0.456794 6.80007 0.827212 4.49039 2.65087 4.34393C2.76816 3.2465 3.56863 2.42011 4.72372 2.48065C4.73912 0.800138 7.52121 0.178001 8.78845 0.732964C9.77887 -0.0770244 11.1373 -0.0852239 12.1566 0.715391C13.2295 -0.726107 15.824 0.214718 16.3449 1.73472C17.8803 1.08485 19.4181 2.4994 19.5432 3.97136C21.65 4.17444 21.4253 6.21464 21.6244 7.62099C21.7918 8.80122 22.6499 10.4997 21.5185 11.6045C22.7427 12.6153 21.7618 13.5737 21.6007 14.6063C21.2832 16.6578 21.9036 16.5332 19.9302 17.3061C17.6813 18.1876 15.3059 17.5225 13.0068 17.8622C10.6943 18.204 9.08502 18.7156 6.716 18.0536" fill="#58CC05"/>
<path d="M19.7138 14.5423C22.7811 12.5013 23.7317 16.7804 22.4369 18.1568C21.3097 19.3546 19.2058 19.3439 19 17.6869" fill="#58CC05"/>
<path d="M3.28615 15.5423C0.218912 13.5013 -0.731678 17.7804 0.563082 19.1568C1.69031 20.3546 3.79422 20.3439 4 18.6869" fill="#58CC05"/>
<path d="M19.797 20.1711C20.1328 16.0338 20.9163 9.3806 19.0551 5.57058C17.3487 2.07973 11.4325 1.79885 7.99593 2.66258C0.208219 4.61974 1.6185 20.1497 4.7578 25.1437C6.74521 28.3057 10.0536 31.0308 14.0546 29.6167C17.2376 28.4916 19.5453 23.2885 19.797 20.1711Z" fill="#58CC05"/>
<path d="M11.5388 2.24771C10.3499 2.24771 9.13152 2.39226 8.10976 2.65441C6.15836 3.15527 4.69122 4.59885 3.75069 6.94413C1.44329 12.6942 3.00487 21.5346 5.05071 24.859C6.91584 27.8891 9.40513 29.6269 11.8804 29.6273H11.8808C12.5586 29.6273 13.2492 29.5019 13.9333 29.255C16.9278 28.1739 19.1917 23.0333 19.4346 19.9696C19.4633 19.6043 19.4956 19.2194 19.5294 18.8186C19.8815 14.6293 20.3642 8.89131 18.7257 5.46305C17.3366 2.56105 13.2372 2.24771 11.5388 2.24771ZM11.8808 30H11.8804C9.27415 30 6.66982 28.1974 4.73513 25.0551C2.36321 21.2002 1.24157 12.2 3.40634 6.80466C4.39429 4.34334 5.94577 2.82553 8.01766 2.29342C9.06934 2.02346 10.3196 1.875 11.5388 1.875C13.3071 1.875 17.5796 2.20903 19.0599 5.3013C20.7428 8.82176 20.2554 14.6176 19.8986 18.8503C19.8652 19.2503 19.8329 19.6344 19.8038 19.9989C19.5477 23.2369 17.2372 28.458 14.0588 29.6058C13.334 29.8676 12.6014 30 11.8808 30Z" fill="#58CC05"/>
<path d="M12.925 23.625C12.5487 23.625 12.161 23.6 11.78 23.5753C11.2208 23.5391 10.7386 23.5268 10.2311 23.5395C9.28928 23.5642 8.31245 23.5884 7.57301 23.0286C7.49128 22.967 7.4761 22.8515 7.53798 22.7711C7.60063 22.6902 7.717 22.6756 7.79834 22.7368C8.43348 23.2181 9.34377 23.195 10.2218 23.1722C10.7452 23.1592 11.2391 23.1723 11.8042 23.2088C12.5884 23.2589 13.3982 23.3112 14.0346 23.1372C14.3883 23.0406 14.946 22.6721 15.0538 22.5582C15.1243 22.4839 15.241 22.4804 15.3161 22.5497C15.3912 22.619 15.3947 22.7353 15.3251 22.8092C15.1733 22.9697 14.5514 23.3774 14.1334 23.4914C13.7629 23.5927 13.3515 23.625 12.925 23.625Z" fill="#58CC05"/>
<path d="M9 17.0627C9 17.3733 8.66419 17.625 8.25048 17.625C7.83629 17.625 7.5 17.3733 7.5 17.0627C7.5 16.7521 7.83629 16.5 8.25048 16.5C8.66419 16.5 9 16.7521 9 17.0627Z" fill="#58CC05"/>
<path d="M15.75 17.0627C15.75 17.3733 15.4985 17.625 15.1875 17.625C14.8768 17.625 14.625 17.3733 14.625 17.0627C14.625 16.7521 14.8768 16.5 15.1875 16.5C15.4985 16.5 15.75 16.7521 15.75 17.0627Z" fill="#58CC05"/>
<path d="M19.0548 5.56106C17.3484 2.08022 11.432 1.80015 7.99526 2.6614C2.37815 4.06916 1.54696 12.5169 2.69769 18.9858L2.86679 19.0357C3.33558 18.0287 3.33716 16.9178 3.26015 15.7971C5.16229 15.4688 4.91897 13.5745 5.2393 12.1539C5.44492 11.2412 6.31978 9.82641 6.38964 8.63483C7.51258 10.0874 9.50323 10.5276 11.0886 9.37845C11.4566 12.0631 15.2855 12.1044 16.4104 9.95691C16.5743 10.9428 17.2801 11.6751 18.2828 11.2388C17.8644 12.43 18.7289 18.9722 19.628 19.5L19.8543 19.44C20.2083 15.295 20.8176 9.15876 19.0548 5.56106Z" fill="#58CC05"/>
<path d="M11.3475 21C11.3441 21 11.3415 21 11.3377 21C10.51 20.9975 9.40582 20.6783 9.01801 19.7872C8.97463 19.6877 9.01235 19.568 9.10176 19.5193C9.19154 19.4727 9.29869 19.513 9.34245 19.613C9.59784 20.2004 10.3999 20.5964 11.3388 20.5994C11.3422 20.5994 11.3449 20.5994 11.3483 20.5994C12.2103 20.5994 12.9202 20.2517 13.1583 19.7116C13.2028 19.6125 13.3103 19.5718 13.3997 19.6205C13.4884 19.6692 13.5253 19.7893 13.4816 19.8884C13.1198 20.7086 12.1442 21 11.3475 21Z" fill="#58CC05"/>
<path d="M9.94289 25.5C9.8855 25.5 9.82852 25.4729 9.79012 25.4205C9.72505 25.3306 9.7408 25.2021 9.82528 25.1325C10.7116 24.4056 12.3154 24.0699 13.0555 24.7276C13.1375 24.8002 13.1485 24.9296 13.0802 25.0164C13.0119 25.1037 12.8902 25.1148 12.8085 25.0426C12.275 24.5685 10.8883 24.7783 10.0609 25.4574C10.0258 25.4862 9.98452 25.5 9.94289 25.5Z" fill="#58CC05"/>
<path d="M6.55634 16.125C6.50077 16.125 6.44671 16.096 6.41093 16.0407C6.35117 15.9485 6.36754 15.8168 6.44824 15.7478C7.20993 15.091 8.14291 14.8653 9.22434 15.0769C9.32293 15.0967 9.38916 15.2047 9.37241 15.3188C9.35566 15.4334 9.26088 15.5094 9.16305 15.4905C8.18439 15.2978 7.3443 15.498 6.66521 16.0833C6.63248 16.1114 6.59479 16.125 6.55634 16.125Z" fill="#58CC05"/>
<path d="M16.33 15.75C16.3054 15.75 16.2808 15.7449 16.2569 15.7333C15.3135 15.2767 14.6223 15.2246 14.1448 15.5757C14.0684 15.6311 13.9625 15.6141 13.9072 15.5366C13.8519 15.459 13.8698 15.351 13.9454 15.2952C14.5335 14.8633 15.3378 14.9053 16.4031 15.4213C16.4884 15.4623 16.5237 15.5656 16.4834 15.6514C16.4541 15.7138 16.3935 15.75 16.33 15.75Z" fill="#58CC05"/>
</svg>
