<svg width="25" height="24" viewBox="0 0 25 24" fill="none" xmlns="http://www.w3.org/2000/svg">
<path d="M12.5 22C6.977 22 2.5 17.523 2.5 12C2.5 6.477 6.977 2 12.5 2C18.023 2 22.5 6.477 22.5 12C22.5 17.523 18.023 22 12.5 22ZM12.5 20C14.6217 20 16.6566 19.1571 18.1569 17.6569C19.6571 16.1566 20.5 14.1217 20.5 12C20.5 9.87827 19.6571 7.84344 18.1569 6.34315C16.6566 4.84285 14.6217 4 12.5 4C10.3783 4 8.34344 4.84285 6.84315 6.34315C5.34285 7.84344 4.5 9.87827 4.5 12C4.5 14.1217 5.34285 16.1566 6.84315 17.6569C8.34344 19.1571 10.3783 20 12.5 20V20ZM16.626 13.746L12.571 16.644C11.666 17.29 10.441 17.033 9.834 16.068C9.61494 15.7171 9.49918 15.3116 9.5 14.898V9.102C9.5 7.942 10.383 7 11.472 7C11.863 7 12.246 7.124 12.571 7.356L16.626 10.254C17.531 10.901 17.772 12.206 17.166 13.171C17.0251 13.3959 16.8417 13.5913 16.626 13.746V13.746ZM11.472 9.102V14.898L15.527 12L11.472 9.102Z" fill="#EA580C"/>
</svg>
