<svg width="16" height="17" viewBox="0 0 16 17" fill="none" xmlns="http://www.w3.org/2000/svg">
<path d="M7.99998 13.8333C9.41447 13.8333 10.771 13.2714 11.7712 12.2712C12.7714 11.271 13.3333 9.91449 13.3333 8.5C13.3333 7.08551 12.7714 5.72896 11.7712 4.72877C10.771 3.72857 9.41447 3.16667 7.99998 3.16667C6.58549 3.16667 5.22894 3.72857 4.22874 4.72877C3.22855 5.72896 2.66665 7.08551 2.66665 8.5C2.66665 9.91449 3.22855 11.271 4.22874 12.2712C5.22894 13.2714 6.58549 13.8333 7.99998 13.8333V13.8333ZM7.99998 15.1667C4.31798 15.1667 1.33331 12.182 1.33331 8.5C1.33331 4.818 4.31798 1.83334 7.99998 1.83334C11.682 1.83334 14.6666 4.818 14.6666 8.5C14.6666 12.182 11.682 15.1667 7.99998 15.1667Z" fill="#F87171"/>
</svg>
