<svg width="24" height="25" viewBox="0 0 24 25" fill="none" xmlns="http://www.w3.org/2000/svg">
<path d="M20 20.5V9.632L12 4.832L4 9.632V20.5H8V17.75C8 16.6891 8.42143 15.6717 9.17157 14.9216C9.92172 14.1714 10.9391 13.75 12 13.75C13.0609 13.75 14.0783 14.1714 14.8284 14.9216C15.5786 15.6717 16 16.6891 16 17.75V20.5H20ZM14 22.5V17.75C14 17.2196 13.7893 16.7109 13.4142 16.3358C13.0391 15.9607 12.5304 15.75 12 15.75C11.4696 15.75 10.9609 15.9607 10.5858 16.3358C10.2107 16.7109 10 17.2196 10 17.75V22.5H4C3.46957 22.5 2.96086 22.2893 2.58579 21.9142C2.21071 21.5391 2 21.0304 2 20.5V9.632C2 9.28662 2.08943 8.94714 2.25959 8.64659C2.42976 8.34605 2.67485 8.09469 2.971 7.917L10.971 3.117C11.2818 2.9305 11.6375 2.83198 12 2.83198C12.3625 2.83198 12.7182 2.9305 13.029 3.117L21.029 7.917C21.3252 8.09469 21.5702 8.34605 21.7404 8.64659C21.9106 8.94714 22 9.28662 22 9.632V20.5C22 21.0304 21.7893 21.5391 21.4142 21.9142C21.0391 22.2893 20.5304 22.5 20 22.5H14Z" fill="#0F172A"/>
</svg>
