<svg width="1095" height="79" viewBox="0 0 1095 79" fill="none" xmlns="http://www.w3.org/2000/svg">
<path d="M1 78.4678C1 -33.5322 548 49.4678 548 0.467773" stroke="#CBD5E1" stroke-dasharray="6 6"/>
<path d="M274 78.4678C274 14.4678 548 49.4678 548 0.467773" stroke="#CBD5E1" stroke-dasharray="6 6"/>
<path d="M410 78.4678C410 17.4678 548 49.4678 548 0.467773" stroke="#CBD5E1" stroke-dasharray="6 6"/>
<path d="M1094 78.4678C1094 -33.5322 547 49.4678 547 0.467773" stroke="#CBD5E1" stroke-dasharray="6 6"/>
<path d="M959 78.4678C962 -3.53223 547 49.4678 547 0.467773" stroke="#CBD5E1" stroke-dasharray="6 6"/>
<path d="M821 78.4678C821 14.4678 547 49.4678 547 0.467773" stroke="#CBD5E1" stroke-dasharray="6 6"/>
<path d="M548 3.46777L548 78.4678" stroke="#CBD5E1" stroke-dasharray="6 6"/>
<path d="M685 78.4678C685 17.4678 547 49.4678 547 0.467773" stroke="#CBD5E1" stroke-dasharray="6 6"/>
<path d="M136 78.4678C133 -3.53223 548 49.4678 548 0.467773" stroke="#FB923C" stroke-dasharray="6 6"/>
</svg>
